<svg width="73" height="91" viewBox="0 0 73 91" fill="none" xmlns="http://www.w3.org/2000/svg">
<g clip-path="url(#clip0_1131_3813)">
<path d="M0.00488281 79.2955H3.81071L6.43771 86.7438H6.46861L9.11327 79.2955H12.9014V90.7086H10.3848V81.9534H10.3539L7.35605 90.7086H5.43548L2.54799 81.9534H2.51708V90.7086H0.00488281V79.2955Z" fill="#202629"/>
<path d="M16.2876 79.2955H24.0406V81.6179H18.7998V83.746H23.7492V86.0683H18.7998V88.3907H24.3275V90.713H16.2832V79.2999L16.2876 79.2955Z" fill="#202629"/>
<path d="M27.3169 79.2955H31.0874C32.0014 79.2955 32.8667 79.3971 33.6923 79.6002C34.5136 79.8033 35.2332 80.1344 35.8425 80.5936C36.4562 81.0483 36.9419 81.6444 37.2995 82.3729C37.6615 83.1058 37.8381 83.9888 37.8381 85.0308C37.8381 85.9535 37.6615 86.7703 37.3127 87.4723C36.9639 88.1743 36.4915 88.7659 35.9043 89.2472C35.3127 89.724 34.6328 90.0905 33.8557 90.3333C33.0831 90.5806 32.2707 90.7042 31.423 90.7042H27.3125V79.2911L27.3169 79.2955ZM29.8291 88.3862H31.136C32.1294 88.3862 33.2376 88.2317 34.0544 87.6224C34.8977 86.9867 35.2332 85.9226 35.2332 84.9071C35.2332 83.9491 34.8491 83.0131 34.072 82.4258C33.295 81.8386 32.2707 81.6179 31.317 81.6179H29.8335V88.3907L29.8291 88.3862Z" fill="#202629"/>
<path d="M40.4873 79.2955H43.0039V90.7086H40.4873V79.2955Z" fill="#202629"/>
<path d="M55.8827 86.3067C55.8827 86.9822 55.7812 87.6092 55.5781 88.1787C55.375 88.7483 55.0703 89.2428 54.6686 89.6622C54.2668 90.0817 53.7635 90.4084 53.163 90.6468C52.5626 90.8852 51.8694 91 51.0835 91C50.2976 91 49.5912 90.8808 48.9863 90.6468C48.3859 90.4128 47.8825 90.0817 47.4808 89.6622C47.079 89.2428 46.7743 88.7483 46.5712 88.1787C46.3682 87.6092 46.2666 86.9867 46.2666 86.3067V79.2955H48.7832V86.2096C48.7832 86.5628 48.8406 86.8939 48.951 87.1942C49.0658 87.4944 49.2203 87.7549 49.4278 87.9756C49.6309 88.1964 49.8782 88.3686 50.1607 88.4922C50.4433 88.6158 50.7524 88.6777 51.0879 88.6777C51.4235 88.6777 51.7281 88.6158 52.0063 88.4922C52.2844 88.3686 52.5272 88.1964 52.7303 87.9756C52.9334 87.7549 53.0924 87.4944 53.2072 87.1942C53.322 86.8939 53.3749 86.5672 53.3749 86.2096V79.2955H55.8916V86.3067H55.8827Z" fill="#202629"/>
<path d="M59.1714 79.2955H62.9772L65.6042 86.7438H65.6351L68.2798 79.2955H72.068V90.7086H69.5514V81.9534H69.5204L66.5226 90.7086H64.602L61.7145 81.9534H61.6836V90.7086H59.167V79.2955H59.1714Z" fill="#202629"/>
<path d="M53.1183 0C45.6082 0 39.1179 4.36214 36.045 10.6934C32.9677 4.36214 26.4775 0 18.9718 0C8.49469 0 0 8.49469 0 18.9718H72.09C72.09 8.49469 63.5954 0 53.1183 0Z" fill="#202629"/>
<path d="M48.0453 24.7114H40.3145V49.2065H48.0453V24.7114Z" fill="#202629"/>
<path d="M53.1183 53.1183C45.6082 53.1183 39.1179 57.4804 36.045 63.8117C32.9721 57.4804 26.4819 53.1183 18.9718 53.1183C8.49469 53.1183 0 61.613 0 72.09H72.09C72.09 61.613 63.5954 53.1183 53.1183 53.1183Z" fill="#202629"/>
<path d="M0 49.2595C0 49.2595 3.10824 49.3125 6.05754 49.2065C9.38212 49.0873 11.338 47.5199 11.338 44.8311C11.338 43.096 10.2519 41.5992 8.68454 40.8928C10.2519 40.1864 11.338 38.6897 11.338 36.9545C11.338 35.2194 10.2519 33.7227 8.68454 33.0163C10.2519 32.3098 11.338 30.8131 11.338 29.078C11.338 26.3892 9.38212 24.8218 6.05754 24.7026C3.10824 24.6055 0 24.6584 0 24.6584V49.2595Z" fill="#202629"/>
<path d="M72.0463 24.7114H53.6485C53.6485 24.7114 53.5337 34.5615 53.7368 40.3365C53.9399 46.1159 57.5736 49.6966 62.8452 49.6966C68.1169 49.6966 71.7505 46.1159 71.9536 40.3365C72.1567 34.5571 72.0419 24.7114 72.0419 24.7114H72.0463Z" fill="#202629"/>
<path d="M16.0137 49.2551H20.7114C24.3141 49.2551 28.248 48.7164 31.2061 46.4735C34.2834 44.1424 35.4402 40.3542 35.4402 36.6057C35.4402 33.1001 34.0715 29.7358 31.2635 27.5857C28.248 25.2765 24.3494 24.6584 20.654 24.6584H16.0181V49.2551H16.0137Z" fill="#202629"/>
</g>
<defs>
<clipPath id="clip0_1131_3813">
<rect width="72.09" height="91" fill="white"/>
</clipPath>
</defs>
</svg>
